# xmcd
# Copyright (C) 1995-1998 Ti Kan
#
# Track frame offsets:
#       150
#       11784
#       22782
#       34469
#       45971
#       58375
#       70117
#       82542
#       94922
#       107339
#       118044
#
# Disc length: 1743 seconds
#
# Revision: 0
# Processed by: cddbd v1.5.2PL0 Copyright (c) Steve Scherf et al.
# Submitted via: CD-Import v1.0
#
DISCID=7f06cd0b
DTITLE=Fats Domino - Fats
DYEAR=1971
DGENRE=
TTITLE0=I'm Going To Cross That River
TTITLE1=Big Mouth
TTITLE2=It's A Sin To Tell A Lie
TTITLE3=Wait Till It Happens To You
TTITLE4=I'm Going To Help A Friend
TTITLE5=The Lady In Black
TTITLE6=Another Mule
TTITLE7=When You're Smiling
TTITLE8=These Old Shoes
TTITLE9=Lawdy Miss Clawdy
TTITLE10=Work My Way Up Steady
EXTD=
EXTT0=
EXTT1=
EXTT2=
EXTT3=
EXTT4=
EXTT5=
EXTT6=
EXTT7=
EXTT8=
EXTT9=
EXTT10=
PLAYORDER=
